# xmcd
#
# Track frame offsets:
#	150
#	11316
#	22212
#	35467
#	44806
#	56206
#	64412
#	77311
#	88885
#	100839
#	112674
#	124455
#	136202
#	146689
#	159287
#	170213
#	178943
#	188550
#	199127
#	209465
#	219180
#	230110
#	241321
#	252469
#	263717
#	273261
#	284362
#	293684
#	304266
#	315750
#	326628
#	337250
#	349211
#
# Disc length: 4794 seconds
#
# Revision: 0
# Processed by: cddbd v1.5.2PL0 Copyright (c) Steve Scherf et al.
# Submitted via: audiograbber 1.83.01
#
DISCID=fb12b821
DTITLE=George Jones - Birth Of A Legend CD4
DYEAR=2016
DGENRE=Country
TTITLE0=I'm Gonna Burn Your Playhouse Down
TTITLE1=Will The Circle Be Unbroken
TTITLE2=Life To Go (1)
TTITLE3=Jesus Wants Me
TTITLE4=My Lord Has Called Me
TTITLE5=All By Yourself
TTITLE6=Deep In The Heart Of A Fool
TTITLE7=Last Night
TTITLE8=Now Tell Me (take 1)
TTITLE9=Now Tell Me (take 2)
TTITLE10=Now Tell Me (take 3)
TTITLE11=Now Tell Me (take 4)
TTITLE12=Treasure Of Love
TTITLE13=White Lightnin'
TTITLE14=Long Time To Forget
TTITLE15=If I Don't Love You (Grits Ain't Groceries)
TTITLE16=Stay On Board
TTITLE17=The Likes Of You
TTITLE18=There's Gonna Be One
TTITLE19=Into My Arms Again
TTITLE20=Who Shot Sam
TTITLE21=Mr. Fool
TTITLE22=Candy Hearts (undubbed)
TTITLE23=Candy Hearts (overdub)
TTITLE24=Have Mercy On Me
TTITLE25=If You Believe
TTITLE26=Big Harlan Taylor
TTITLE27=Someone Sweet To Love
TTITLE28=Everything Ain't Right
TTITLE29=Relief Is Just A Swallow Away
TTITLE30=Time Lock
TTITLE31=Money To Burn
TTITLE32=Talk To Me Lonesome Heart
EXTD=
EXTT0=
EXTT1=
EXTT2=
EXTT3=
EXTT4=
EXTT5=
EXTT6=
EXTT7=
EXTT8=
EXTT9=
EXTT10=
EXTT11=
EXTT12=
EXTT13=
EXTT14=
EXTT15=
EXTT16=
EXTT17=
EXTT18=
EXTT19=
EXTT20=
EXTT21=
EXTT22=
EXTT23=
EXTT24=
EXTT25=
EXTT26=
EXTT27=
EXTT28=
EXTT29=
EXTT30=
EXTT31=
EXTT32=
PLAYORDER=
